<svg xmlns="http://www.w3.org/2000/svg" width="155.508" height="21.473" viewBox="0 0 155.508 21.473"><g transform="translate(-912.582 -199.366)"><path d="M526.611,115.483V111.4h9.858v-4.086h-9.858v-4.092h10.234v-4.09H522.521v20.449h14.754v-4.094Z" transform="translate(530.814 100.702)" fill="#1b3293"/><path d="M527.717,107.59h-7.541v4.09h7.541a6.644,6.644,0,1,1-.82-5.775l3.387-2.29a10.739,10.739,0,1,0,1.843,6.017,11.155,11.155,0,0,0-.191-2.042Z" transform="translate(518.764 100.468)" fill="#1b3293"/><path d="M505.038,119.573l1.425-3.961h8.985l1.419,3.961h4.342l-7.332-20.445H508.03L500.7,119.573Zm5.915-16.482,3.026,8.436h-6.052Z" transform="translate(508.649 100.701)" fill="#1b3293"/><path d="M509.5,105.264a6.137,6.137,0,0,0-6.132-6.136h-9.2v20.443h4.09v-8.178h5.112a6.128,6.128,0,0,0,6.128-6.128m-6.132,2.04h-5.108v-4.086h5.108a2.043,2.043,0,0,1,0,4.086" transform="translate(502.01 100.701)" fill="#1b3293"/><path d="M473.986,119.577h4.888l-5.679-8.686a6.134,6.134,0,0,0-2.445-11.763h-9.188v20.443h4.088v-8.178h2.987Zm-8.336-16.359h5.1a2.043,2.043,0,1,1,0,4.086h-5.1Z" transform="translate(468.888 100.701)" fill="#1b3293"/><path d="M480.725,98.9A10.737,10.737,0,1,0,491.46,109.63,10.736,10.736,0,0,0,480.725,98.9m0,17.379a6.648,6.648,0,1,1,6.477-6.646,6.558,6.558,0,0,1-6.477,6.646" transform="translate(477.455 100.468)" fill="#1b3293"/><path d="M467.809,99.128H452.7v20.489H456.9l-.018-8.221H467v-4.084H456.875l-.008-4.094h10.942Z" transform="translate(459.884 100.701)" fill="#1b3293"/><path d="M502.587,99.128h-4.415l-5.6,13.793-5.6-13.793H481.9v20.449h4.088V107.57l4.6,11.333h3.983l-.01-.024,4.594-11.309v12.007h4.088V99.128Z" transform="translate(489.545 100.701)" fill="#1b3293"/></g></svg>