<svg id="レイヤー_1" data-name="レイヤー 1" xmlns="http://www.w3.org/2000/svg" viewBox="0 0 400.5 155.2"><defs><style>.cls-1{fill:#ffdc00;}.cls-2{fill:#004ea1;}.cls-3{fill:#80a6d0;}</style></defs><polygon class="cls-1" points="398.21 125.63 17.61 125.63 17.61 20.88 398.21 20.88 368.12 73.25 398.21 125.63"/><path class="cls-2" d="M91.38,76.33,86.73,94.41H78.18l-5-17.93L69.92,98.09l-13.65.15L63,52.7H76.15l6.15,21,5.85-21h13.73l6.75,45.46L95,98.09Z"/><path class="cls-2" d="M118,51.58l14.85.07-.08,47H118Z"/><path class="cls-2" d="M168.9,64.93c-1.75-.75-3.27-1.44-4.54-2.06a8.09,8.09,0,0,0-3.87-.87A5.69,5.69,0,0,0,157,63.21a3.42,3.42,0,0,0-1.28,2.92c.05,1.25,1.22,2.29,3.49,3.11A57.1,57.1,0,0,1,165,71.68a22,22,0,0,1,6.37,4.8,11.92,11.92,0,0,1,2.93,8q.22,6.83-3.79,11.07a13.4,13.4,0,0,1-9.42,4.46A42.32,42.32,0,0,1,150,99a26.37,26.37,0,0,1-9-4.2l5.62-11.18a15.87,15.87,0,0,0,6.08,2.85,10.94,10.94,0,0,0,5.89.41c1.52-.42,2.26-1.26,2.21-2.51q-.08-2.4-3.38-3.49a50.69,50.69,0,0,1-5.7-2.21,16.19,16.19,0,0,1-6.6-5.33,15.51,15.51,0,0,1-2.7-8.55A11.94,11.94,0,0,1,146.62,55a15.06,15.06,0,0,1,9.9-4.35,26.15,26.15,0,0,1,8.78,1.09,41.49,41.49,0,0,1,8.47,3.93Z"/><path class="cls-2" d="M207.43,64.93q-2.62-1.12-4.54-2.06A8,8,0,0,0,199,62a5.72,5.72,0,0,0-3.53,1.21,3.41,3.41,0,0,0-1.27,2.92q.08,1.88,3.49,3.11a56.83,56.83,0,0,1,5.81,2.44,22.09,22.09,0,0,1,6.38,4.8,11.91,11.91,0,0,1,2.92,8q.22,6.83-3.79,11.07a13.38,13.38,0,0,1-9.41,4.46A42.28,42.28,0,0,1,188.49,99a26.33,26.33,0,0,1-9-4.2l5.63-11.18a15.82,15.82,0,0,0,6.07,2.85,10.94,10.94,0,0,0,5.89.41c1.53-.42,2.26-1.26,2.21-2.51q-.08-2.4-3.37-3.49a50.69,50.69,0,0,1-5.7-2.21,16.19,16.19,0,0,1-6.6-5.33,15.51,15.51,0,0,1-2.71-8.55A11.94,11.94,0,0,1,185.15,55a15.06,15.06,0,0,1,9.9-4.35,26.15,26.15,0,0,1,8.78,1.09,41.55,41.55,0,0,1,8.48,3.93Z"/><path class="cls-2" d="M218.94,51.58l14.86.07-.08,47H218.94Z"/><path class="cls-2" d="M265.4,51.5q11.64,0,17.78,7t6.15,17.36q0,10.14-7,16.51a24.26,24.26,0,0,1-16.92,6.37,23.67,23.67,0,0,1-16.88-6.52A21.49,21.49,0,0,1,241.62,76a25.91,25.91,0,0,1,6-17.37Q253.71,51.51,265.4,51.5Zm-10,23.71a10.5,10.5,0,1,0,3.08-7.43A10.15,10.15,0,0,0,255.35,75.21Z"/><path class="cls-2" d="M324.77,76.18V52.85l13.65-.15V98.09H326.27L309.39,78.21V98.09H296V52.7h10.73Z"/><rect class="cls-3" x="14.64" y="28.12" width="10.48" height="123.08"/><circle class="cls-2" cx="19.88" cy="20.88" r="16.88"/></svg>