<?xml version="1.0" encoding="UTF-8"?>
<svg id="_レイヤー_1" data-name="レイヤー 1" xmlns="http://www.w3.org/2000/svg" viewBox="0 0 1260 230">
  <defs>
    <style>
      .cls-1 {
        fill: #004ea1;
      }

      .cls-2 {
        fill: #ffc800;
      }
    </style>
  </defs>
  <path class="cls-1" d="M158.97,118.99l-19.02,73.93h-34.97l-20.25-73.32-13.5,88.35-55.83,.61L43.01,22.35h53.69l25.16,85.9,23.93-85.9h56.14l27.61,185.91-55.83-.31-14.72-88.97Z"/>
  <path class="cls-2" d="M280.38,17.75l60.74,.31-.31,192.35h-60.43V17.75Z"/>
  <path class="cls-1" d="M501.1,72.36c-7.16-3.07-13.34-5.88-18.56-8.44-5.21-2.56-10.48-3.73-15.8-3.53-5.93,.21-10.74,1.84-14.42,4.91-3.68,3.07-5.42,7.06-5.21,11.96,.2,5.11,4.96,9.36,14.26,12.73,9.3,3.37,17.23,6.7,23.78,9.97,9.82,4.91,18.51,11.46,26.08,19.63,7.56,8.18,11.55,19.13,11.96,32.82,.61,18.61-4.55,33.7-15.49,45.25-10.94,11.56-23.77,17.64-38.5,18.25-17.18,.41-32.36-1.02-45.56-4.29-13.19-3.27-25.51-9-36.97-17.18l23.01-45.71c7.16,5.52,15.44,9.41,24.85,11.66,9.82,2.87,17.84,3.43,24.08,1.69,6.24-1.74,9.25-5.16,9.05-10.28-.21-6.54-4.81-11.3-13.81-14.26-9-2.96-16.77-5.98-23.31-9.05-11.25-5.11-20.25-12.37-27-21.78-6.75-9.4-10.43-21.06-11.04-34.97-.82-15.13,5.01-28.42,17.49-39.88,12.47-11.45,25.97-17.38,40.49-17.79,13.29-.41,25.26,1.07,35.89,4.45,10.63,3.38,22.19,8.74,34.67,16.11l-19.94,37.73Z"/>
  <path class="cls-2" d="M671.24,72.36c-7.16-3.07-13.34-5.88-18.56-8.44-5.22-2.56-10.48-3.73-15.8-3.53-5.93,.21-10.74,1.84-14.42,4.91-3.68,3.07-5.42,7.06-5.21,11.96,.2,5.11,4.96,9.36,14.26,12.73,9.3,3.37,17.23,6.7,23.77,9.97,9.82,4.91,18.51,11.46,26.08,19.63,7.56,8.18,11.55,19.13,11.97,32.82,.61,18.61-4.56,33.7-15.49,45.25-10.94,11.56-23.77,17.64-38.5,18.25-17.18,.41-32.36-1.02-45.56-4.29-13.19-3.27-25.51-9-36.97-17.18l23.01-45.71c7.16,5.52,15.44,9.41,24.85,11.66,9.82,2.87,17.84,3.43,24.08,1.69,6.24-1.74,9.25-5.16,9.05-10.28-.21-6.54-4.81-11.3-13.8-14.26-9-2.96-16.77-5.98-23.31-9.05-11.25-5.11-20.25-12.37-27-21.78-6.75-9.4-10.43-21.06-11.04-34.97-.82-15.13,5.01-28.42,17.49-39.88,12.47-11.45,25.97-17.38,40.49-17.79,13.29-.41,25.25,1.07,35.89,4.45,10.63,3.38,22.19,8.74,34.67,16.11l-19.94,37.73Z"/>
  <path class="cls-1" d="M730.89,17.75l60.74,.31-.31,192.35h-60.43V17.75Z"/>
  <path class="cls-2" d="M933.44,17.45c31.7,0,55.93,9.56,72.7,28.68,16.77,19.13,25.16,42.8,25.16,71.02s-9.57,50.11-28.68,67.49c-19.13,17.39-42.18,26.08-69.18,26.08s-50.21-8.9-69.02-26.69c-18.82-17.79-28.22-39.98-28.22-66.57,0-28.02,8.23-51.69,24.7-71.02,16.46-19.33,40.65-28.99,72.55-28.99Zm-41.11,96.94c0,11.86,4.19,21.99,12.58,30.37,8.38,8.39,18.51,12.58,30.37,12.58s21.98-4.19,30.37-12.58c8.38-8.38,12.58-18.51,12.58-30.37s-4.19-21.98-12.58-30.37c-8.39-8.38-18.51-12.58-30.37-12.58s-21.99,4.2-30.37,12.58c-8.39,8.39-12.58,18.51-12.58,30.37Z"/>
  <path class="cls-1" d="M1188.77,118.37V22.97l55.83-.61V207.95h-49.7l-69.02-81.3v81.3h-54.91V22.35h43.87l73.93,96.02Z"/>
</svg>